<?xml version="1.0" encoding="iso-8859-1"?>
<!-- Uploaded to: SVG Repo, www.svgrepo.com, Generator: SVG Repo Mixer Tools -->
<svg height="800px" width="800px" version="1.1" id="Layer_1" xmlns="http://www.w3.org/2000/svg" xmlns:xlink="http://www.w3.org/1999/xlink" 
	 viewBox="0 0 511.853 511.853" xml:space="preserve">
<path style="fill:#5D9CEC;" d="M447.707,223.174c0,105.602-85.6,191.169-191.176,191.169c-105.593,0-191.191-85.567-191.191-191.169
	c0-105.593,85.599-191.176,191.191-191.176C362.108,31.998,447.707,117.581,447.707,223.174z"/>
<g>
	<path style="fill:#A0D468;" d="M410.969,202.853c-37.661,2.858-49.72-19.197-44.768-25.945c8.59-11.669,49.422,16.698,52.124-4.327
		c0.469-3.687,9.685-13.277,17.808-15.089c-18.525-50.641-57.873-91.238-107.655-111.481c-1.671,5.717-3.171,10.434-3.999,10.84
		c-28.709,13.949-62.605,20.432-82.958,47.251c-2.859,3.765-6.639,10.872-2.562,15.371c5.061,5.576,18.557-0.156,25.21,0.328
		c18.417,1.327,70.416,13.433,72.103,21.853c1.688,8.419-19.728,24.352-40.658,12.793c-6.17-3.39-30.788-7.623-39.145-9.122
		c-5.842-1.062-56.327,5.279-54.062,65.276c0.906,24.321,16.12,39.988,40.66,40.27c20.353,0.234,40.956-2.156,47.625,21.954
		c5.654,20.399,3.499,41.55,8.528,61.856c2.031,8.185,6.342,19.682,16.714,20.556c15.698,1.344,26.258-9.185,35.692-20.149
		c7.529-8.748,17.041-16.34,22.634-26.586c8.888-16.245,6.451-35.583,15.854-51.867
		C397.692,243.512,422.856,201.947,410.969,202.853z"/>
	<path style="fill:#A0D468;" d="M126.696,260.413c-5.982-8.701-12.84-17.12-18.994-25.695c-5.732-7.998-28.132-44.346-38.504-49.923
		c-2.53,12.402-3.858,25.227-3.858,38.379c0,46.533,16.635,89.168,44.268,122.314c0.703,0.875,17.323-11.465,18.775-12.715
		c6.139-5.217,11.278-11.559,13.574-19.4C147.315,295.16,136.771,275.072,126.696,260.413z"/>
</g>
<g style="opacity:0.2;">
	<path style="fill:#FFFFFF;" d="M256.531,31.998c-3.577,0-7.138,0.094-10.668,0.297c100.625,5.529,180.522,88.879,180.522,190.879
		c0,102.008-79.896,185.357-180.522,190.888c3.53,0.188,7.091,0.281,10.668,0.281c105.576,0,191.176-85.567,191.176-191.169
		C447.707,117.581,362.108,31.998,256.531,31.998z"/>
</g>
<path style="fill:#EAC6BB;" d="M450.769,335.586c-3.343-0.281-7.029-0.406-11.044-0.406c-26.242,0-67.119,5.592-123.103,15.463
	c-6.982-19.868-51.25-28.584-51.25-28.584s-95.533-5.187-156.515-8.529c-3.889-0.219-7.654-0.312-11.277-0.312
	C16.792,313.218,0,363.64,0,363.64v52.234c0.031,29.929,92.331,44.58,92.644,44.643c73.306,14.496,163.418,19.338,163.418,19.338
	s246.924-97.002,253.406-102.656C515.936,371.512,513.11,340.584,450.769,335.586z"/>
<path style="fill:#DBADA2;" d="M385.804,339.678c-19.399,2.562-42.003,6.186-67.854,10.747c-3.311,1.468-6.701,2.968-10.184,4.437
	c-67.76,28.896-115.684,34.988-143.94,34.988c-5.889,0-10.668,4.78-10.668,10.653c0,5.905,4.78,10.653,10.668,10.653
	c44.096,0,95.454-12.371,152.641-36.801C351.065,359.547,376.869,344.926,385.804,339.678z"/>
</svg>